<?xml version="1.0" standalone="yes"?>
<svg xmlns="http://www.w3.org/2000/svg" width="50" height="50">
<path style="fill:#010101; stroke:none;" d="M0 0L0 50L50 50L50 0L0 0z"/>
<path style="fill:#8e6e9f; stroke:none;" d="M11 16C-2.0183 19.7766 10.2014 33.2704 14.2878 39.169C15.9438 41.5593 16.3549 44.9244 19.2276 46.2577C36.0642 54.0723 39.2472 38.2346 41.2461 26C42.1491 20.4736 43.557 11.8926 39.4861 7.27855C30.7717 -2.59858 12.0837 3.68089 11 16z"/>
<path style="fill:#ff01ff; stroke:none;" d="M35 4L36 5L35 4z"/>
<path style="fill:#ac74a2; stroke:none;" d="M21 5L21 6L26 6L21 5z"/>
<path style="fill:#ef84a7; stroke:none;" d="M16 28L12 18C3.53279 20.5722 9.09823 30.7538 14.0432 34.5664C17.4761 37.2131 21.9462 37.0322 26 38L26 39L18 39C19.5325 48.6092 39.8365 47.3097 34 36C37.8203 33.7758 38.4502 30.2437 38.9491 26C39.5994 20.4677 41.9656 11.8313 36.7215 7.74228C28.6846 1.47584 12.3677 5.56437 13.6296 17C14.0431 20.7469 14.9832 24.3818 16 28z"/>
<path style="fill:#ac74a2; stroke:none;" d="M27 5L27 6L32 6L27 5M17 6L18 7L17 6M35 6L36 7L35 6z"/>
<path style="fill:#ff01ff; stroke:none;" d="M12 8L13 9L12 8z"/>
<path style="fill:#ac74a2; stroke:none;" d="M20 8L19 10L20 8z"/>
<path style="fill:#8e6e9f; stroke:none;" d="M24 8L24 11L25 11L24 8M28 8L28 11L29 11L28 8M20.3333 9.66667L20.6667 10.3333L20.3333 9.66667M32.3333 9.66667L32.6667 10.3333L32.3333 9.66667z"/>
<path style="fill:#ac74a2; stroke:none;" d="M33 9L34 10L33 9M13.3333 11.6667L13.6667 12.3333L13.3333 11.6667M16 11L16 13L18 11L16 11M36 11L37 12L36 11M39 11L40 12L39 11z"/>
<path style="fill:#8e6e9f; stroke:none;" d="M17.6667 12.3333L18.3333 12.6667L17.6667 12.3333z"/>
<path style="fill:#ac74a2; stroke:none;" d="M34 12L35 13L34 12z"/>
<path style="fill:#8e6e9f; stroke:none;" d="M35.6667 12.3333L36.3333 12.6667L35.6667 12.3333z"/>
<path style="fill:#ac74a2; stroke:none;" d="M13 16L12 22L13 22L13 16M6 17L7 18L6 17M10.6667 17.3333L11.3333 17.6667L10.6667 17.3333M8 18L9 19L8 18M7 19L8 20L7 19z"/>
<path style="fill:#8e6e9f; stroke:none;" d="M13 20L14 28L15 28L13 20z"/>
<path style="fill:#ac74a2; stroke:none;" d="M39 21L39 26L40 26L39 21M14.3333 22.6667L14.6667 23.3333L14.3333 22.6667M7.33333 24.6667L7.66667 25.3333L7.33333 24.6667M13.3333 24.6667L13.6667 25.3333L13.3333 24.6667M15.3333 26.6667L15.6667 27.3333L15.3333 26.6667M8 27L9 28L8 27M9 29L10 30L9 29M38.3333 29.6667L38.6667 30.3333L38.3333 29.6667M10 31L11 32L10 31M11 32L12 33L11 32M12 33L13 34L12 33M37 33L38 34L37 33M13 34L14 35L13 34M14 35L15 36L14 35M16 36L17 37L16 36M34 36L36 41L37 41L34 36M17 41L18 41L26 39C22.55 36.3999 18.5311 36.6457 17 41M27 38L27 39L32 39L27 38z"/>
<path style="fill:#8e6e9f; stroke:none;" d="M29 37L29 38L32 38L29 37M34 37L35 38L34 37M20 38L20 39L25 39L20 38M28 38L29 39L28 38z"/>
<path style="fill:#ac74a2; stroke:none;" d="M18 43L19 44L18 43M35 43L36 44L35 43M19 44L20 45L19 44M34 44L35 45L34 44M23 45L23 46L31 46L23 45z"/>
</svg>
