<?xml version="1.0" standalone="yes"?>
<svg xmlns="http://www.w3.org/2000/svg" width="50" height="50">
<path style="fill:#010101; stroke:none;" d="M0 0L0 31C9.22078 25.0095 18.6835 25.9058 19 39L20 39C22.0976 31.6312 16.089 29.6168 15.6474 23C15.1805 16.0042 24.0723 10.9132 30 12C28.6498 -4.05792 48.1409 14.5339 32 14C33.7865 16.1541 38.7702 17.8355 39.6543 20.2546C41.8521 26.2682 28.9214 22.5083 27 22L26 23L29 33L30 33C34.7705 24.2822 50.0659 25.0165 48.5008 36.9992C46.749 50.4111 31.0978 45.3962 29 35L28 35C26.6694 39.6046 22.8758 46.9736 19 40L18 40C12.7429 46.6937 6.16532 46.8407 1 40L0 40L0 50L50 50L50 0L0 0z"/>
<path style="fill:#8e6da0; stroke:none;" d="M30 12C23.5604 10.2522 14.845 15.5152 15.3364 23C15.7662 29.5462 21.4726 31.8385 20 39L19 39C18.9034 28.3271 3.76735 19.1486 0.318673 33.0039C-2.56508 44.5895 12.5586 50.4654 18 40L19 40C21.6674 48.0063 27.1898 39.4694 28 35L29 35C30.2872 46.557 47.3949 50.4066 48.7431 36.9992C49.9126 25.3677 33.7777 22.4655 30 33L29 33L26 23L27 22C29.1734 22.7921 42.2244 26.57 40.2485 20.2546C39.4865 17.8191 33.9483 15.6559 32 14C49.6779 15.4177 26.7604 -5.5237 30 12z"/>
<path style="fill:#d8d2ce; stroke:none;" d="M37 12C36.2544 2.65876 27.6588 11.2544 37 12z"/>
<path style="fill:#a69ab8; stroke:none;" d="M35 6L36 7L35 6z"/>
<path style="fill:#ff01ff; stroke:none;" d="M29 7L30 8L29 7z"/>
<path style="fill:#a69ab8; stroke:none;" d="M37 8L37 11L38 11L37 8z"/>
<path style="fill:#ff01ff; stroke:none;" d="M39 8L40 9L39 8z"/>
<path style="fill:#a69ab8; stroke:none;" d="M31 10L32 11L31 10M33 12L33 13L36 13L33 12M23 15L26 14L23 15z"/>
<path style="fill:#d8d2ce; stroke:none;" d="M21 42C28.8732 37.4513 25.9446 24.602 26 17C30.2057 20.7373 33.4148 21.9494 39 22L39 20C33.754 19.6012 31.6838 14.8997 27 14.1358C12.4886 11.7693 22.091 28.8716 22.9298 33C23.5222 35.9159 21.7538 39.2304 21 42z"/>
<path style="fill:#a69ab8; stroke:none;" d="M27 13L28 14L27 13M29 14L30 15L29 14M30 15L31 16L30 15M21 16L22 17L21 16M26 17L27 18L26 17M32 18L33 19L32 18z"/>
<path style="fill:#8e6da0; stroke:none;" d="M0 19L0 23L2 23L2 19L0 19M4 19L6 23L6 19L4 19z"/>
<path style="fill:#ff01ff; stroke:none;" d="M7 19L8 20L7 19z"/>
<path style="fill:#8e6da0; stroke:none;" d="M8 19L7 23L10 19L8 19M11 19L11 23L14 23L14 19L11 19z"/>
<path style="fill:#a69ab8; stroke:none;" d="M18 19L19 20L18 19M33 19L33 20L36 20L33 19z"/>
<path style="fill:#8e6da0; stroke:none;" d="M43 19L45 23L45 19L43 19M47 19L46 23L49 19L47 19z"/>
<path style="fill:#a69ab8; stroke:none;" d="M17.3333 20.6667L17.6667 21.3333L17.3333 20.6667M31 21L32 22L31 21M17 24L18 25L17 24M24 25L25 26L24 25M18 26L19 27L18 26M19 27L20 28L19 27M25 27L26 28L25 27M6.66667 28.3333L7.33333 28.6667L6.66667 28.3333z"/>
<path style="fill:#d8d2ce; stroke:none;" d="M8.01466 28.7577C-1.16529 30.2852 1.45938 44.8272 10.9846 42.6667C19.9208 40.6397 16.8426 27.2889 8.01466 28.7577z"/>
<path style="fill:#a69ab8; stroke:none;" d="M10.6667 28.3333L11.3333 28.6667L10.6667 28.3333M20 28L21 29L20 28M36.6667 28.3333L37.3333 28.6667L36.6667 28.3333z"/>
<path style="fill:#d8d2ce; stroke:none;" d="M38.0046 28.7616C29.1952 30.0967 30.8059 43.8845 39.9954 42.8326C49.474 41.7475 47.0894 27.3848 38.0046 28.7616z"/>
<path style="fill:#a69ab8; stroke:none;" d="M40.6667 28.3333L41.3333 28.6667L40.6667 28.3333M13 29L14 30L13 29z"/>
<path style="fill:#ff01ff; stroke:none;" d="M18 29L19 30L18 29z"/>
<path style="fill:#a69ab8; stroke:none;" d="M21 29L22 30L21 29M26 29L27 30L26 29M34 29L35 30L34 29M43 29L44 30L43 29M3 30L4 31L3 30M22 30L23 31L22 30M33 30L34 31L33 30M44 30L45 31L44 30M15 31L16 32L15 31M27.3333 31.6667L27.6667 32.3333L27.3333 31.6667M32 31L33 32L32 31M45 31L46 32L45 31M2 32L3 33L2 32M16.3333 32.6667L16.6667 33.3333L16.3333 32.6667M31 33L31 39L32 39L31 33M46.3333 33.6667L46.6667 34.3333L46.3333 33.6667M1 34L1 38L2 38L1 34M23 34L24 35L23 34M26 34L27 35L26 34M8 35L8 37L10 37L10 35L8 35M38 35L38 37L40 37L40 35L38 35M25 36L26 37L25 36M22 37L23 38L22 37M46.3333 37.6667L46.6667 38.3333L46.3333 37.6667M16.3333 38.6667L16.6667 39.3333L16.3333 38.6667M2 39L3 40L2 39M21 39L22 40L21 39M15 40L16 41L15 40M32 40L33 41L32 40M45 40L46 41L45 40M14 41L15 42L14 41M23 41L24 42L23 41M33 41L34 42L33 41M44 41L45 42L44 41M5 42L6 43L5 42M13 42L14 43L13 42M34 42L35 43L34 42M43 42L44 43L43 42M7 43L7 44L12 44L7 43z"/>
<path style="fill:#ff01ff; stroke:none;" d="M24 43L25 44L24 43z"/>
<path style="fill:#a69ab8; stroke:none;" d="M36 43L36 44L42 44L36 43z"/>
</svg>
