<?xml version="1.0" standalone="yes"?>
<svg xmlns="http://www.w3.org/2000/svg" width="50" height="50">
<path style="fill:#010101; stroke:none;" d="M0 0L0 50L50 50L50 0L0 0z"/>
<path style="fill:#926d9f; stroke:none;" d="M30 3L32 7L32 3L30 3M34 3L36 7L36 3L34 3M38 4L37 8L40 7L41 10L44 7L40 7L38 4M26 5L29 8L28 5L26 5M15 15C11.6111 16.966 5.22566 17.3916 2.62269 19.8241C-3.44401 25.4934 10.1207 26.0237 13 25C11.424 28.7855 8.54448 32.8253 8.3179 37C8.16718 39.7772 12.5701 50.3998 15.8827 44.6628C17.3858 42.0596 15.7013 37.0334 16 34L17 34C17.1768 37.4017 24.005 50.2241 25.5779 41.8511C26.7268 35.7352 23.0007 26.6317 23 20C25.2574 21.0634 28.1771 23.888 30.8071 23.5347C35.6033 22.8904 31.9665 16.4314 29.6705 15.0278C26.547 13.1182 21.5138 14 18 14C21.2316 1.76234 3.93376 8.51884 15 15z"/>
<path style="fill:#efa2a1; stroke:none;" d="M13 8L12 11L17 12L13 8z"/>
<path style="fill:#a28b98; stroke:none;" d="M16 8L17 9L16 8M12 9L13 10L12 9z"/>
<path style="fill:#926d9f; stroke:none;" d="M42 13L46 10L42 13z"/>
<path style="fill:#a28b98; stroke:none;" d="M14.6667 12.3333L15.3333 12.6667L14.6667 12.3333z"/>
<path style="fill:#010101; stroke:none;" d="M16.6667 14.3333L17.3333 14.6667L16.6667 14.3333z"/>
<path style="fill:#926d9f; stroke:none;" d="M43 14L43 16L47 16L47 14L43 14z"/>
<path style="fill:#a28b98; stroke:none;" d="M18 16L19 17L18 16z"/>
<path style="fill:#efa2a1; stroke:none;" d="M3 21L3 22L15 22C14.5574 30.5326 8.34655 35.6498 13 44L14 44L16 30L18 30C19.2235 35.0779 19.1686 40.0339 24 43L21 18L30 22C32.4883 9.80133 7.57113 21.3305 3 21z"/>
<path style="fill:#a28b98; stroke:none;" d="M28 16L29 17L28 16M16 17L17 18L16 17M13 18L14 19L13 18M21 18L22 19L21 18M28 19L29 20L28 19M4 20L5 21L4 20M10 20L11 21L10 20M31.3333 20.6667L31.6667 21.3333L31.3333 20.6667M6 21L7 22L6 21M29 21L30 22L29 21M3 22L4 23L3 22M11 22L12 23L11 22M14 22L15 23L14 22z"/>
<path style="fill:#ff01ff; stroke:none;" d="M33 22L34 23L33 22z"/>
<path style="fill:#a28b98; stroke:none;" d="M5 23L6 24L5 23M7.66667 24.3333L8.33333 24.6667L7.66667 24.3333z"/>
<path style="fill:#926d9f; stroke:none;" d="M42 35C47.3364 35.6989 50.7319 29.8534 45.6821 26.2785C36.4782 19.7629 36.9896 28.5728 33.9761 33.7407C32.1101 36.9408 27.6608 38.4423 29.0023 42.9421C30.4143 47.6782 37.324 48.0141 40.2577 44.5664C42.4277 42.0162 41.9911 38.111 42 35z"/>
<path style="fill:#a28b98; stroke:none;" d="M37 26L38 27L37 26z"/>
<path style="fill:#efa2a1; stroke:none;" d="M38 26L37 27C37.5017 29.7139 38.565 33.1413 36.9691 35.6867C35.5058 38.0208 31.0177 38.3858 31.466 41.8302C31.9513 45.5585 37.1424 44.9889 38.821 42.5656C40.7423 39.7918 39.9996 35.1935 40 32L46 33L46 28L38 26z"/>
<path style="fill:#a28b98; stroke:none;" d="M40 26L41 27L40 26M14 27L15 28L14 27M43 27L44 28L43 27M13 29L14 30L13 29M37 29L37 37L38 37L37 29M16.6667 30.3333L17.3333 30.6667L16.6667 30.3333M12 31L13 32L12 31M15 31L16 32L15 31M21 32L21 35L22 35L21 32M40.6667 32.3333L41.3333 32.6667L40.6667 32.3333M11 33L12 34L11 33M14 33L15 34L14 33M44.6667 33.3333L45.3333 33.6667L44.6667 33.3333z"/>
<path style="fill:#ff01ff; stroke:none;" d="M16 34L17 35L16 34z"/>
<path style="fill:#a28b98; stroke:none;" d="M10 35L11 36L10 35M12 37L13 38L12 37M34 37L34 38L37 38L34 37M10 39L11 40L10 39M13 40L14 41L13 40M23 40L24 41L23 40M30 40L30 43L31 43L30 40M11 41L12 42L11 41M21 41L22 42L21 41z"/>
<path style="fill:#ff01ff; stroke:none;" d="M28 42L29 43L28 42z"/>
<path style="fill:#a28b98; stroke:none;" d="M39 42L40 43L39 42M12 43L13 44L12 43M14 43L15 44L14 43M13 44L14 45L13 44M32 44L33 45L32 44M37 44L38 45L37 44z"/>
<path style="fill:#ff01ff; stroke:none;" d="M38 46L39 47L38 46z"/>
</svg>
