<?xml version="1.0" standalone="yes"?>
<svg xmlns="http://www.w3.org/2000/svg" width="50" height="50">
<path style="fill:#010101; stroke:none;" d="M0 0L0 50L50 50L50 0L0 0z"/>
<path style="fill:#906da0; stroke:none;" d="M27 11C23.9136 11.0085 20.1328 10.6112 17.3904 12.3179C10.7581 16.4455 14.9042 27.2848 20 19L21 19C19.6187 22.6717 18.1045 27.9763 14.8526 30.3981C12.6586 32.0321 7.44265 31.748 6.9213 35.0895C5.51194 44.1224 23.9019 34.2701 26 32C27.0065 34.058 28.2063 35.9738 29.2647 38.0046C31.1008 41.5279 39.4122 52.4222 38.3256 40.9954C37.6358 33.7415 32.6249 28.4692 33 21C35.4988 22.219 47.7899 21.9406 43.9136 16.561C42.4879 14.5823 33.5667 12.683 31 12C41.8804 1.60453 19.8553 -2.47572 27 11z"/>
<path style="fill:#88b4e1; stroke:none;" d="M28 3L27 5L28 3z"/>
<path style="fill:#ed91a8; stroke:none;" d="M26 5C27.8147 10.7246 32.1131 9.28117 33 4L26 5z"/>
<path style="fill:#88b4e1; stroke:none;" d="M31 3L32 4L31 3M32 6L33 7L32 6z"/>
<path style="fill:#de65a9; stroke:none;" d="M25 9L26 10L25 9M26 10L27 11L26 10M15 13L16 14L15 13M15 21L26 16L26 17L22 26L23 26L30 25L31 18C35.6969 19.9824 38.3774 20.3715 43 18C34.0985 14.6581 18.3074 7.39515 15 21M33 21L34 22L33 21z"/>
<path style="fill:#906da0; stroke:none;" d="M7 24L7 28L9 28L9 24L7 24z"/>
<path style="fill:#de65a9; stroke:none;" d="M10 24L11 25L10 24z"/>
<path style="fill:#906da0; stroke:none;" d="M11 24L13 28L13 24L11 24M14 24L17 28L17 24L14 24M23 24L23 27L24 27L23 24M27 24L28 27L27 24M34 24L34 28L36 28L36 24L34 24M38 24L38 28L40 28L40 24L38 24M42 24L42 28L44 28L44 24L42 24z"/>
<path style="fill:#ed91a8; stroke:none;" d="M24.6667 25.3333L25.3333 25.6667L24.6667 25.3333M28.6667 25.3333L29.3333 25.6667L28.6667 25.3333z"/>
<path style="fill:#88b4e1; stroke:none;" d="M21 26C17.2728 32.2327 14.6383 32.9775 8 35L8 36C15.3418 37.8549 21.0434 35.2509 25 29L26 29L37 45L30 26L21 26z"/>
<path style="fill:#de65a9; stroke:none;" d="M23 34L24 35L23 34z"/>
<path style="fill:#88b4e1; stroke:none;" d="M37 46L38 47L37 46z"/>
</svg>
