<?xml version="1.0" standalone="yes"?>
<svg xmlns="http://www.w3.org/2000/svg" width="50" height="50">
<path style="fill:#010101; stroke:none;" d="M0 0L0 50L50 50L50 0L0 0z"/>
<path style="fill:#8f6ca1; stroke:none;" d="M22 12C18.3833 13.8516 14.7354 16.2252 13.0054 20.0895C9.04518 28.9355 15.9009 33.5462 19 23L20 23L18 33L15 32C15.0499 36.044 10.7899 41.2634 11.8866 44.6821C14.2873 52.1657 23.6923 40.5188 25 38C26.6052 39.8804 34.7688 51.5642 37.2917 44.6813C38.462 41.4883 35.9013 35.6483 36 32L33 34L30 24C32.0383 24.601 42.626 25.5388 38.338 20.5648C35.8551 17.6848 30.2294 15.2367 27 13C35.8788 0.643368 15.391 -0.465378 22 12z"/>
<path style="fill:#f2e5da; stroke:none;" d="M23.6034 5.08179C21.1317 6.87167 23.9181 10.7131 26.3966 8.91821C28.8683 7.12834 26.0819 3.28693 23.6034 5.08179z"/>
<path style="fill:#86bbe8; stroke:none;" d="M14 29L15 29L22 19C22.001 28.2489 25.9534 41.9107 36 45L28 20L38 23C27.8017 14.4812 14.1622 11.0752 14 29z"/>
<path style="fill:#64b1d9; stroke:none;" d="M16 18L17 19L16 18M15 19L16 20L15 19M14 21L15 22L14 21M13 27L14 28L13 27M15 27L16 28L15 27M22 29L23 30L22 29M28 29L29 30L28 29M21 31L13 45C19.4493 44.0042 26.4196 36.9976 21 31M29 31L30 32L29 31z"/>
<path style="fill:#8f6ca1; stroke:none;" d="M4 32L3 36L6 32L4 32M8 32L7 36L10 32L8 32M12 32L11 36L14 36L12 32z"/>
<path style="fill:#64b1d9; stroke:none;" d="M24 32L25 33L24 32z"/>
<path style="fill:#8f6ca1; stroke:none;" d="M38 32L38 36L40 36L40 32L38 32M42 32L42 36L44 36L44 32L42 32z"/>
<path style="fill:#64b1d9; stroke:none;" d="M29 39L30 40L29 39M35 42L36 43L35 42z"/>
</svg>
