<?xml version="1.0" standalone="yes"?>
<svg xmlns="http://www.w3.org/2000/svg" width="50" height="50">
<path style="fill:#010101; stroke:none;" d="M0 0L0 50L50 50L50 0L0 0z"/>
<path style="fill:#d0c9cb; stroke:none;" d="M14.3179 12.0718C10.1879 14.5981 14.7048 20.6526 18.3966 17.9537C21.9008 15.392 18.139 9.73435 14.3179 12.0718M37.3179 12.0864C33.1276 14.5054 37.7362 20.6979 41.3927 17.9529C44.6294 15.5231 40.8466 10.0494 37.3179 12.0864M1 24L19 24C16.9781 17.9081 3.02188 17.9081 1 24z"/>
<path style="fill:#fb6d44; stroke:none;" d="M18 20L19 24L14 24C15.8708 30.2422 19.5958 32.667 26 33C24.3203 27.8377 23.4915 22.0943 18 20z"/>
<path style="fill:#d0c9cb; stroke:none;" d="M23 23L42 23L42 21C36.7135 19.4374 26.5525 18.0742 23 23z"/>
<path style="fill:#fb6d44; stroke:none;" d="M41 20L42 23L37 24C38.8708 30.2422 42.5958 32.667 49 33C47.3203 27.8377 46.4915 22.0943 41 20z"/>
<path style="fill:#010101; stroke:none;" d="M23 23L28 33L23 23z"/>
<path style="fill:#475f68; stroke:none;" d="M2 24C3.54964 29.4186 6.03051 37.0031 11 40L6 24L2 24z"/>
<path style="fill:#010101; stroke:none;" d="M6 24L8 32L16 29C13.7219 24.2111 11.0081 24.0177 6 24z"/>
<path style="fill:#475f68; stroke:none;" d="M25 24C26.5195 29.5531 28.8303 37.0214 34 40C32.401 34.2876 31.255 25.9572 25 24z"/>
<path style="fill:#010101; stroke:none;" d="M28 24L31 32L39 29C36.544 23.8372 33.2921 24.0041 28 24z"/>
<path style="fill:#d0c9cb; stroke:none;" d="M9 34L22 34C17.951 29.8406 11.2121 26.7138 9 34M32 34L45 34C40.951 29.8406 34.2121 26.7138 32 34z"/>
<path style="fill:#70bd8f; stroke:none;" d="M1 33L1 41L49 41L49 33L32 34L34 40C25.0769 32.2793 20.9156 34 9 34L11 40L1 33M31 33L32 34L31 33z"/>
<path style="fill:#d0c9cb; stroke:none;" d="M1 46L49 46L46.6821 40.946L16 41.0779L3.3179 40.946L1 46z"/>
</svg>
